Coordinates
version=1
nRows=29
nColumns=24
inDegrees=yes

Units are S.I. units (second, meters, Newtons, ...)
Angles are in degrees.

endheader
time	pelvis_tilt	pelvis_list	pelvis_rotation	pelvis_tx	pelvis_ty	pelvis_tz	hip_flexion_r	hip_adduction_r	hip_rotation_r	knee_angle_r	ankle_angle_r	subtalar_angle_r	mtp_angle_r	hip_flexion_l	hip_adduction_l	hip_rotation_l	knee_angle_l	ankle_angle_l	subtalar_angle_l	mtp_angle_l	lumbar_extension	lumbar_bending	lumbar_rotation
      0.52500000	     -5.69456875	      1.99742079	      6.68079942	     -0.78367875	      1.01812014	      0.31383865	     26.65091581	     -0.65094903	    -10.27751897	      1.87665111	      6.04919528	      4.00469479	      5.98108497	     -7.42523333	      6.79718442	      6.32971842	     -9.61812097	      9.81647166	     -0.64452174	     -1.73032558	     -0.30739168	     -5.75861958	     -6.05174938
      0.52916667	     -5.64806562	      1.96339078	      6.72362136	     -0.77767203	      1.01763522	      0.31391684	     26.57110008	     -0.50984704	    -10.20371924	      1.61068399	      6.20460209	      3.84413075	      5.99558786	     -7.52410409	      6.72758681	      6.39082035	    -10.23007385	      9.84705192	     -0.67753395	     -1.72102203	     -0.28102944	     -5.72079343	     -6.03831116
      0.53333333	     -5.62404200	      1.92381498	      6.76095651	     -0.77163693	      1.01711210	      0.31402829	     26.49638516	     -0.35942430	     -9.97200856	      1.33414753	      6.20873420	      3.40522850	      6.06898931	     -7.53733561	      6.64103537	      6.24389131	    -10.96681266	      9.97492090	     -0.35806439	     -1.64280004	     -0.23216317	     -5.69932570	     -6.04559826
      0.53750000	     -5.57346037	      1.87576517	      6.80250818	     -0.76557244	      1.01664155	      0.31409511	     26.40693206	     -0.21015801	     -9.76813952	      0.97083175	      6.25828007	      3.03196033	      6.14696396	     -7.58069026	      6.55201239	      6.19759521	    -11.70091835	     10.04623686	     -0.19848925	     -1.55514778	     -0.20882868	     -5.63695668	     -6.04603379
      0.54166667	     -5.50099265	      1.82267675	      6.83167345	     -0.75946848	      1.01622809	      0.31417982	     26.29406780	     -0.04929041	     -9.52957117	      0.57743340	      6.09727160	      2.45821886	      6.28732288	     -7.61757692	      6.44815683	      6.02960978	    -12.48558487	     10.08695171	      0.07729684	     -1.38448964	     -0.20590580	     -5.57979096	     -6.05551012
      0.54583333	     -5.45585489	      1.75614250	      6.86630383	     -0.75333460	      1.01577000	      0.31422921	     26.21434503	      0.11326758	     -9.25651503	      0.13246487	      5.99014122	      1.89824023	      6.42927151	     -7.61175387	      6.34189179	      5.93988489	    -13.30211148	     10.10833095	      0.25965530	     -1.20601662	     -0.16120985	     -5.48297123	     -6.06090303
      0.55000000	     -5.38013721	      1.69415355	      6.89263044	     -0.74717125	      1.01537853	      0.31429846	     26.09771921	      0.27807659	     -8.95972945	     -0.32224740	      5.71298252	      1.20984930	      6.60525980	     -7.61371295	      6.23048425	      5.76794830	    -14.15675942	     10.06094526	      0.48458420	     -0.96975604	     -0.15104840	     -5.40354669	     -6.07040285
      0.55416667	     -5.30505905	      1.62243076	      6.92256009	     -0.74097532	      1.01500574	      0.31434617	     25.97804148	      0.44778730	     -8.64836443	     -0.79071517	      5.36118895	      0.47412292	      6.81640636	     -7.59408328	      6.10967689	      5.60141926	    -15.04993657	      9.98805749	      0.70066657	     -0.67295584	     -0.13807666	     -5.30677720	     -6.07353631
      0.55833333	     -5.22992675	      1.54622877	      6.94782124	     -0.73474670	      1.01464315	      0.31440148	     25.85857060	      0.62230748	     -8.32084835	     -1.27514616	      4.94336749	     -0.28767262	      7.03943569	     -7.55869772	      5.98122347	      5.41193706	    -15.96822386	      9.85245224	      0.91205726	     -0.34135882	     -0.11301831	     -5.20117591	     -6.07661804
      0.56250000	     -5.10376002	      1.46928384	      6.97964358	     -0.72850022	      1.01438109	      0.31443920	     25.68409623	      0.79586172	     -8.04595928	     -1.75928350	      4.38143862	     -1.11193426	      9.81066879	     -7.56351475	      5.84618186	      5.25525154	    -16.89549723	      9.57488764	      0.99677412	      3.89611056	     -0.15500881	     -5.09663739	     -5.99547774
      0.56666667	     -5.05958785	      1.38993325	      6.99164788	     -0.72223210	      1.01401134	      0.31451743	     25.60543085	      0.96886864	     -7.70526244	     -2.27787648	      3.86935472	     -1.83929322	      9.82780140	     -7.43129609	      5.70667493	      4.95655865	    -17.92150599	      9.33576312	      1.28117358	      3.97698817	     -0.08799815	     -4.98208895	     -6.08433020
      0.57083333	     -4.94747517	      1.31409704	      7.01109148	     -0.71596694	      1.01374969	      0.31460848	     25.44143635	      1.14822039	     -7.33477347	     -2.76760246	      3.23200439	     -2.80181626	      9.88460023	     -7.35771089	      5.55916444	      4.69216577	    -18.97355244	      9.14520863	      1.53742936	      4.16649683	     -0.11037735	     -4.88538098	     -6.06414537
      0.57500000	     -4.84757388	      1.22946878	      7.03244693	     -0.70967108	      1.01351933	      0.31469770	     25.28777160	      1.33034164	     -6.98734163	     -3.25676398	      2.54290820	     -3.68973979	      9.97277919	     -7.24241435	      5.39416065	      4.38302915	    -20.05685571	      8.82412107	      1.80110627	      4.44373635	     -0.11004628	     -4.76467569	     -6.05648102
      0.57916667	     -4.75163810	      1.14288653	      7.05003631	     -0.70337116	      1.01329757	      0.31480174	     25.14130665	      1.51294935	     -6.64860068	     -3.75063766	      1.81443398	     -4.57634231	     10.08590662	     -7.09793659	      5.21951121	      4.05300087	    -21.17900719	      8.45071015	      2.07267563	      4.80991449	     -0.10168956	     -4.64380144	     -6.04366780
      0.58333333	     -4.65053494	      1.04592276	      7.06693627	     -0.69706281	      1.01311694	      0.31491802	     24.98964162	      1.70402862	     -6.32889436	     -4.24509180	      1.05640678	     -5.43933667	     10.21913107	     -6.92818344	      5.01979817	      3.67310370	    -22.34125263	      7.99010606	      2.36217463	      5.27093897	     -0.09939775	     -4.50664709	     -6.02499426
      0.58750000	     -4.55804707	      0.97370524	      7.08123472	     -0.69076947	      1.01294956	      0.31504122	     24.85723516	      1.86267463	     -6.04712979	     -4.76212605	      0.28466171	     -6.21144612	     11.80605026	     -6.73971811	      4.84649173	      3.32690869	    -23.49105238	      7.27347124	      2.46580622	     10.71783287	     -0.08960699	     -4.40988645	     -5.97728197
      0.59166667	     -4.43310646	      0.85430956	      7.10243660	     -0.68445839	      1.01287592	      0.31518961	     24.69680805	      2.06700056	     -5.83227020	     -5.29699901	     -0.39754612	     -6.88434795	     11.79892007	     -6.53179561	      4.58359085	      2.85203751	    -24.73807401	      6.73421919	      2.89003584	     10.83343637	     -0.11537492	     -4.23861582	     -5.98503958
      0.59583333	     -4.35780977	      0.75982771	      7.11922601	     -0.67818155	      1.01275206	      0.31536204	     24.59372344	      2.24112627	     -5.58035995	     -5.84354515	     -1.09486746	     -7.60129797	     11.80261992	     -6.24953257	      4.35129961	      2.40472452	    -26.00392417	      6.06352724	      3.18898355	     11.05108989	     -0.08231856	     -4.11651954	     -5.95563561
      0.60000000	     -4.21786278	      0.64399789	      7.13663150	     -0.67190239	      1.01277563	      0.31555119	     24.41668445	      2.44126896	     -5.36589053	     -6.38121222	     -1.76372829	     -8.26152911	     11.81332074	     -6.00946777	      4.06597769	      1.91205380	    -27.29606595	      5.33460274	      3.54577154	     11.37836053	     -0.13238783	     -3.95630607	     -5.92081462
      0.60416667	     -4.13386474	      0.54593306	      7.16519407	     -0.66566678	      1.01275863	      0.31573595	     24.31272668	      2.60595097	     -5.18546758	     -6.95444701	     -2.37582173	     -8.84076926	     12.07411092	     -5.68828643	      3.80195487	      1.46866906	    -28.59194459	      4.31897361	      3.69669176	     16.10247540	     -0.12184708	     -3.83116903	     -5.87682883
      0.60833333	     -4.01983204	      0.42301743	      7.18322022	     -0.65944019	      1.01280470	      0.31596250	     24.19281672	      2.79664930	     -5.06777511	     -7.56660989	     -2.83752341	     -9.26096068	     12.05846188	     -5.35532248	      3.47632125	      0.93108517	    -29.96295772	      3.48277942	      4.10788941	     16.19425058	     -0.14261265	     -3.67004637	     -5.85324603
      0.61250000	     -3.89819461	      0.29797014	      7.20495436	     -0.65324506	      1.01291017	      0.31620205	     24.05891992	      2.98888220	     -4.94341643	     -8.16885286	     -3.29723079	     -9.71184579	     12.03430040	     -5.00410693	      3.13424552	      0.40341058	    -31.35184187	      2.49684253	      4.42594270	     16.37526004	     -0.17497061	     -3.50635713	     -5.81169858
      0.61666667	     -3.80354424	      0.17014706	      7.22882137	     -0.64708635	      1.01300696	      0.31645806	     23.96348315	      3.17584903	     -4.84915263	     -8.79721988	     -3.66663771	    -10.09001153	     11.99836878	     -4.59431924	      2.77987826	     -0.11009188	    -32.77209241	      1.44468796	      4.72438448	     16.63611156	     -0.17947057	     -3.34764379	     -5.76665465
      0.62083333	     -3.65508956	      0.03787422	      7.26018007	     -0.64095879	      1.01323170	      0.31671739	     23.80515998	      3.36790638	     -4.79328020	     -9.42374224	     -3.91847149	    -10.37878524	     11.46365278	     -4.22439776	      2.39966509	     -0.60014294	    -34.18219554	      0.19696875	      4.92457896	     20.60926552	     -0.26007398	     -3.17764036	     -5.72712656
      0.62500000	     -3.52029284	     -0.10007649	      7.29176058	     -0.63487119	      1.01346270	      0.31698168	     23.67244728	      3.55512703	     -4.79200638	    -10.08118904	     -4.05363885	    -10.51207203	     11.45709425	     -3.80520538	      1.99961647	     -1.09563049	    -35.63742315	     -0.99703526	      5.18289107	     20.61454429	     -0.33086768	     -2.99932910	     -5.69490872
      0.62916667	     -3.44113671	     -0.24548515	      7.31280131	     -0.62884701	      1.01360684	      0.31730268	     23.60224526	      3.75335670	     -4.75715038	    -10.73749070	     -4.19849010	    -10.75136152	     11.42519245	     -3.28597353	      1.57888084	     -1.60973978	    -37.14646847	     -2.18664921	      5.46693643	     20.67500646	     -0.33074722	     -2.82763472	     -5.63223086
      0.63333333	     -3.28211802	     -0.40619163	      7.34704155	     -0.62285062	      1.01392175	      0.31759782	     23.42987299	      3.96770030	     -4.77782968	    -11.36632917	     -4.21827118	    -10.86773992	     11.40454500	     -2.83986796	      1.12720944	     -2.06244742	    -38.64065943	     -3.47959602	      5.67750565	     20.69624492	     -0.44021147	     -2.62551517	     -5.59149859
      0.63750000	     -3.15626319	     -0.56688006	      7.37062640	     -0.61691089	      1.01418767	      0.31793076	     23.29147062	      4.18336144	     -4.78868534	    -11.99186464	     -4.19508340	    -10.97702215	     11.37535950	     -2.32706392	      0.66491349	     -2.52128606	    -40.16034477	     -4.76893914	      5.89170585	     20.71798360	     -0.51164270	     -2.43000680	     -5.54098924
      0.64166667	     -3.04251082	     -0.74753541	      7.39225402	     -0.61100870	      1.01446325	      0.31827962	     23.15792231	      4.42021298	     -4.81297176	    -12.59879831	     -4.13039605	    -11.06451438	     11.32848209	     -1.78009988	      0.17764961	     -2.94018538	    -41.69044973	     -6.05473876	      6.06833356	     20.73765962	     -0.56777192	     -2.21799514	     -5.47732478
